<svg width="80" height="50" viewBox="0 0 80 50" fill="none" xmlns="http://www.w3.org/2000/svg">
<g clip-path="url(#clip0_134_118)">
<path d="M58.7477 49.843C51.0728 49.9968 29.3763 50.0178 21.2024 49.8446C23.3964 49.5371 25.5308 49.0677 27.5718 48.1176C31.7537 46.1704 34.8089 43.1032 36.9288 39.0356C37.1075 38.6941 37.2217 38.3348 37.0157 37.9641C36.3944 36.8505 35.7666 35.7402 35.0632 34.4874C34.3469 36.9039 33.2893 38.9498 31.7827 40.7481C29.8656 43.0352 27.4962 44.7185 24.6905 45.6541C22.1087 46.5152 19.4511 46.7612 16.7099 46.2529C13.0801 45.5796 10.0571 43.8979 7.58632 41.19C5.42294 38.8171 4.14327 36.0283 3.61369 32.8283C3.15494 30.0621 3.44306 27.4076 4.35413 24.8195C5.29417 22.1505 6.87003 19.8925 9.02536 18.0295C11.8986 15.5482 15.2531 14.3246 18.9779 14.1125C21.3586 13.9766 23.6314 14.5592 25.8302 15.4867C29.0141 16.8301 31.4978 18.9893 33.2217 21.9692C35.1517 25.3051 36.9481 28.7171 38.8411 32.0757C40.0322 34.1896 41.2539 36.2889 42.54 38.3461C43.6732 40.1573 44.726 42.0203 46.2117 43.6001C48.7517 46.3015 51.7618 48.1596 55.3079 49.2069C56.4459 49.5435 57.6242 49.529 58.7525 49.8446L58.7477 49.843Z" fill="#6FD449"/>
<path d="M58.7477 49.843C57.6193 49.5273 56.4411 49.5403 55.303 49.2052C51.757 48.158 48.7453 46.2999 46.2069 43.5984C44.7227 42.0187 43.6684 40.1557 42.5352 38.3445C41.2491 36.2888 40.0274 34.1879 38.8362 32.074C36.9433 28.7171 35.1469 25.3034 33.2169 21.9675C31.493 18.9877 29.0093 16.8301 25.8254 15.4851C23.6266 14.5576 21.3537 13.9749 18.973 14.1109C15.2483 14.3229 11.8938 15.5466 9.02054 18.0279C6.8652 19.8893 5.28935 22.1472 4.34931 24.8179C3.43824 27.406 3.15172 30.0621 3.60887 32.8267C4.13844 36.0266 5.41812 38.8155 7.5815 41.1883C10.0507 43.8979 13.0753 45.578 16.705 46.2513C19.4463 46.7612 22.1038 46.5135 24.6857 45.6524C27.4914 44.7169 29.8592 43.0335 31.7779 40.7465C33.2861 38.9482 34.3421 36.9023 35.0584 34.4857C35.7618 35.7385 36.3895 36.8489 37.0109 37.9625C37.2169 38.3331 37.1026 38.6925 36.924 39.034C34.804 43.1015 31.7489 46.1687 27.567 48.1159C25.526 49.066 23.3916 49.537 21.1976 49.843C20.1465 49.9401 12.5135 49.1631 9.10102 46.978C7.39478 45.9794 5.97667 44.6246 4.67607 43.1824C3.42858 41.7969 2.44991 40.1897 1.70303 38.4529C0.490958 35.6333 0.0225476 32.6761 0.0209379 29.6267C0.0144993 20.0511 0.0257669 10.4755 1.23899e-05 0.901521C-0.00159727 0.190958 0.15293 -0.0680169 0.875666 0.0145314C1.45836 0.0808937 2.05876 0.0744194 2.64307 0.0145314C3.27728 -0.0502124 3.38351 0.20067 3.38029 0.784982C3.35776 6.36751 3.36742 11.9517 3.36742 17.5358C3.36742 17.832 3.36098 18.1298 3.37064 18.426C3.37707 18.6041 3.2982 18.8598 3.52033 18.9213C3.86158 19.0152 3.74247 18.6478 3.85675 18.507C4.65997 17.5229 5.52919 16.6019 6.44186 15.7165C8.06601 14.1416 10.0394 13.0782 12.0403 12.1653C13.4117 11.5389 14.9473 11.1747 16.4974 10.9643C18.6141 10.6778 20.6873 10.7151 22.7976 11.0501C24.9304 11.3884 26.9505 12.0261 28.8048 13.0782C31.8004 14.7761 34.2745 17.081 36.0708 20.0608C37.6531 22.6862 39.1968 25.3342 40.763 27.9677C40.8483 28.1101 46.268 38.4869 48.132 40.6445C52.1497 45.2979 57.2169 47.2823 63.2885 46.2141C69.2845 45.1604 73.4326 41.6043 75.5718 35.9538C78.3227 28.6879 75.5525 20.5804 68.8258 16.4821C65.4567 14.4281 61.79 13.6237 57.8978 14.3342C52.6294 15.2973 48.6825 18.1493 46.1666 22.9549C45.6676 23.9082 45.3409 24.9231 44.924 25.98C44.0435 24.9263 43.4511 23.7674 42.8217 22.6425C42.4338 21.9497 43.097 21.4415 43.369 20.9009C44.7614 18.1347 46.973 16.0726 49.336 14.1837C50.1473 13.5346 51.1533 13.1057 52.1175 12.6817C52.5747 12.4793 52.9545 12.1702 53.4374 11.9921C56.0274 11.0404 58.6914 10.6536 61.4342 10.7523C62.825 10.8025 64.169 11.1521 65.5292 11.4127C67.06 11.7073 68.4926 12.311 69.7964 13.0442C71.691 14.1093 73.394 15.511 74.8845 17.1425C76.4829 18.8906 77.7304 20.8831 78.5964 23.0552C79.501 25.3261 79.9582 27.7572 79.9743 30.2159C80.0145 36.5543 79.9807 42.8927 80 49.2295C80.0016 49.7701 79.8535 49.9579 79.3304 49.9207C78.4515 49.8608 77.563 50.0064 76.6873 49.8381C76.6841 47.9573 76.6793 46.0749 76.6745 44.1941C76.6745 43.5224 76.6745 42.849 76.6712 42.1773C76.6712 42.0171 76.6712 41.8374 76.4781 41.7791C76.2881 41.7225 76.2077 41.8698 76.103 42.0009C75.8069 42.3764 75.4978 42.7422 75.1823 43.1015C72.668 45.9826 69.6064 47.9961 65.9397 49.1033C64.7598 49.4594 63.5445 49.5484 62.3582 49.83C61.1541 49.9563 59.9501 49.9514 58.7461 49.8349L58.7477 49.843Z" fill="white"/>
<path d="M62.3598 49.8398C63.5445 49.5581 64.7614 49.4691 65.9413 49.113C69.6081 48.0059 72.6697 45.9924 75.1839 43.1113C75.4978 42.7503 75.8085 42.3861 76.1047 42.0106C76.2077 41.8795 76.2898 41.7322 76.4797 41.7889C76.6713 41.8455 76.6729 42.0252 76.6729 42.187C76.6761 42.8588 76.6745 43.5321 76.6761 44.2038C76.6793 46.0846 76.6841 47.967 76.689 49.8479C76.4974 50.0615 76.2415 49.9935 76.0097 49.9935C71.6829 49.9984 69.1461 50.0113 62.3614 49.843L62.3598 49.8398Z" fill="#6FD449"/>
</g>
<defs>
<clipPath id="clip0_134_118">
<rect width="80" height="50" fill="white"/>
</clipPath>
</defs>
</svg>
